<?xml version="1.0" encoding="UTF-8"?>
<svg version="1.1" xmlns="http://www.w3.org/2000/svg" width="512" height="512">
<path d="M0 0 C0.85416504 0.21398437 1.70833008 0.42796875 2.58837891 0.6484375 C40.86806912 10.48593076 73.26406351 30.9851521 103.3125 55.875 C110.98073315 62.22482303 118.80038224 68.34115054 126.76269531 74.31738281 C128.30710839 75.4788947 129.84791091 76.64521751 131.38574219 77.81542969 C140.89076818 85.04743232 150.19278862 91.83892598 161 97 C161 97.66 161 98.32 161 99 C160.38469925 99.196008 159.7693985 99.39201599 159.13545227 99.59396362 C152.72704875 101.63579802 146.31946653 103.68019402 139.91235352 105.72607422 C137.52161252 106.48910081 135.13066343 107.25147572 132.73950195 108.01318359 C129.30104433 109.10863406 125.86334376 110.20643184 122.42578125 111.3046875 C121.35789871 111.6443454 120.29001617 111.9840033 119.18977356 112.33395386 C117.68878365 112.81422531 117.68878365 112.81422531 116.1574707 113.30419922 C115.28032913 113.58399628 114.40318756 113.86379333 113.49946594 114.15206909 C107.38704476 116.21058218 107.38704476 116.21058218 102.8125 120.5625 C98.62790152 125.55011312 93.94167767 129.77863976 89 134 C88.38302246 134.52932129 87.76604492 135.05864258 87.13037109 135.60400391 C50.01205208 167.28033161 4.84051173 190.03267149 -45 187 C-80.47271231 184.11625673 -114.32963907 167.83138934 -142 146 C-142.96365479 145.24831543 -142.96365479 145.24831543 -143.94677734 144.48144531 C-154.47227306 136.24276176 -165.460094 127.61047656 -174.29302979 117.52337646 C-176.36637498 115.6730306 -178.1334362 115.05809095 -180.77514648 114.20654297 C-181.74302597 113.88966522 -182.71090546 113.57278748 -183.70811462 113.24630737 C-184.75189774 112.91494781 -185.79568085 112.58358826 -186.87109375 112.2421875 C-188.48190575 111.7194072 -188.48190575 111.7194072 -190.1252594 111.18606567 C-193.55997282 110.07380801 -196.99866709 108.97444668 -200.4375 107.875 C-202.75091221 107.12710945 -205.06406662 106.37842097 -207.37695312 105.62890625 C-211.61495786 104.25947006 -215.85338351 102.89144755 -220.09545898 101.53466797 C-220.94800766 101.26169891 -221.80055634 100.98872986 -222.67893982 100.70748901 C-224.77452136 100.06872879 -226.8695117 99.50836246 -229 99 C-228 96 -228 96 -225.21875 94.4140625 C-223.98093606 93.81404436 -222.74119553 93.21799138 -221.5 92.625 C-212.85981742 88.26412354 -205.51629548 82.57688595 -197.97216797 76.56347656 C-195.15882601 74.33314208 -192.29728696 72.17046872 -189.4375 70 C-184.58132649 66.26401614 -179.81022139 62.43512012 -175.0625 58.5625 C-137.3367881 27.81970466 -98.12909064 5.85311756 -50 -4 C-49.16831299 -4.17885742 -48.33662598 -4.35771484 -47.47973633 -4.54199219 C-31.60398991 -7.47424583 -15.35378533 -3.91407103 0 0 Z M-150 53 C-151.24955496 54.01877527 -152.49957836 55.03697617 -153.75 56.0546875 C-155.76024217 57.69134045 -157.76982886 59.3287234 -159.77612305 60.97021484 C-165.32271906 65.49397333 -170.98599224 69.84889048 -176.6875 74.17480469 C-183.36915174 79.25397156 -189.92402209 84.48368334 -196.45507812 89.75439453 C-198.63164972 91.50927258 -200.81557019 93.2549198 -203 95 C-196.28672665 97.57328616 -189.50435944 99.90420305 -182.6875 102.1875 C-181.06231445 102.73954102 -181.06231445 102.73954102 -179.40429688 103.30273438 C-178.36724609 103.65013672 -177.33019531 103.99753906 -176.26171875 104.35546875 C-175.32287842 104.67153076 -174.38403809 104.98759277 -173.41674805 105.31323242 C-170.93778121 106.1366738 -170.93778121 106.1366738 -168 106 C-167.77183594 106.55300781 -167.54367188 107.10601562 -167.30859375 107.67578125 C-162.82863797 115.63271763 -153.76832067 122.23315586 -146.72265625 127.83203125 C-144.95701076 129.23796131 -143.21296177 130.67162233 -141.49609375 132.13671875 C-109.4506309 159.38759327 -67.70598949 178.64999279 -25 176 C13.1866896 172.7505593 46.99923657 154.16730286 76 130 C76.53625 129.55398438 77.0725 129.10796875 77.625 128.6484375 C89.37839201 118.91748044 89.37839201 118.91748044 100 108 C100 107.34 100 106.68 100 106 C101.216875 105.7525 102.43375 105.505 103.6875 105.25 C109.9055345 103.86604875 115.93655426 101.93917847 122 100 C123.14339844 99.64421875 124.28679687 99.2884375 125.46484375 98.921875 C126.54894531 98.57640625 127.63304687 98.2309375 128.75 97.875 C129.73484375 97.56304687 130.7196875 97.25109375 131.734375 96.9296875 C134.16224503 96.22359011 134.16224503 96.22359011 135 94 C134.41476562 93.58492188 133.82953125 93.16984375 133.2265625 92.7421875 C121.13931599 84.06695652 109.44905924 74.8596962 97.9375 65.4375 C85.44739828 55.23696549 72.86288457 45.28181843 59 37 C58.02571045 36.4112207 58.02571045 36.4112207 57.03173828 35.81054688 C37.37255338 24.04393964 16.10339592 15.87472333 -6 10 C-6.84433594 9.77554199 -7.68867188 9.55108398 -8.55859375 9.31982422 C-56.58981934 -3.03892123 -113.25810141 22.76904645 -150 53 Z " fill="#138DA4" transform="translate(290,209)"/>
<path d="M0 0 C0.66 0 1.32 0 2 0 C9.19142638 14.78319013 16.32823158 29.58836119 23.25 44.5 C24.07213989 46.26875488 24.07213989 46.26875488 24.91088867 48.07324219 C27.78252996 54.27929677 27.78252996 54.27929677 29 57 C29.35206512 57.75662933 29.70413025 58.51325867 30.06686401 59.29281616 C31.13176167 62.38226268 31.20020386 64.73032149 31.12841797 67.99267578 C31.10955536 69.17805939 31.09069275 70.36344299 31.07125854 71.58474731 C31.0451651 72.85873383 31.01907166 74.13272034 30.9921875 75.4453125 C30.96823294 78.15881461 30.95778927 80.87236112 30.9453125 83.5859375 C30.92182165 87.85269471 30.88116829 92.11718053 30.77734375 96.3828125 C30.69465533 99.84551865 30.67195687 103.30433688 30.68716812 106.76794052 C30.67988066 108.70643141 30.61041152 110.64437453 30.53927612 112.58157349 C30.59674777 118.04906114 30.87558977 121.60402359 34.37304688 125.94618225 C36.89636034 128.37483175 39.6146845 130.53613712 42.37556839 132.68670654 C44.92218071 134.74554932 47.1907455 137.05458438 49.49316406 139.37963867 C50.39319153 140.27974167 51.29321899 141.17984467 52.22052002 142.10722351 C53.14290466 143.03476944 54.06528931 143.96231537 55.015625 144.91796875 C56.00716314 145.91137999 56.99892824 146.90456474 57.99090576 147.89753723 C60.55760552 150.46799218 63.12128429 153.04143825 65.68426514 155.61560059 C68.31757814 158.25928136 70.95384841 160.90000986 73.58984375 163.54101562 C78.72940057 168.69118572 83.86575776 173.84453115 89 179 C90.33749993 173.2009161 90.98444643 167.72515613 89 162 C84.45084434 155.51525308 77.87734728 150.55968468 71.89916992 145.44482422 C47.76814809 124.57530049 47.76814809 124.57530049 46.34375 112.28515625 C45.86477253 104.75912207 47.00172314 97.24913361 49 90 C50.32 90 51.64 90 53 90 C52.82082031 90.72960937 52.64164063 91.45921875 52.45703125 92.2109375 C50.52181156 101.71110691 49.53423912 112.07168689 54 121 C59.62271261 128.34736222 67.10701607 134.21437734 74.0625 140.25 C95.37916641 158.79447844 95.37916641 158.79447844 96.65234375 173.109375 C97.15299024 183.47556695 95.94886641 193.82991559 94 204 C92.68 204 91.36 204 90 204 C90.10183594 203.22398437 90.20367187 202.44796875 90.30859375 201.6484375 C90.49167248 196.99934727 90.48867117 192.98627281 87.59326172 189.12304688 C83.99635702 185.31279194 79.99920866 181.98644302 75.95288086 178.66772461 C73.32850928 176.42655919 70.93336501 173.99383781 68.51855469 171.53125 C66.81798838 169.81646674 65.03863397 168.23777246 63.1875 166.6875 C59.97666245 163.92381971 56.97732835 161.01380404 54 158 C51.08373397 155.04816975 48.15394165 152.19611141 45 149.5 C40.93635623 146.02624 37.22769774 142.24287793 33.47265625 138.44140625 C30.11766855 135.12881966 26.58374052 132.05974713 23 129 C22 128 22 128 21.915802 125.56686401 C21.94225296 123.94217697 21.94225296 123.94217697 21.96923828 122.28466797 C21.99257736 120.44411331 21.99257736 120.44411331 22.01638794 118.56637573 C22.02592625 117.90411861 22.03546455 117.2418615 22.0452919 116.55953598 C22.09722945 112.26815143 22.0911052 107.97635413 22.09665108 103.68470573 C22.10476293 99.93928255 22.13144086 96.19597398 22.20214844 92.45117188 C22.26970993 88.81154335 22.280189 85.17520363 22.25689316 81.53506851 C22.25777314 79.51982304 22.31413513 77.50483151 22.37307739 75.490448 C22.19274078 60.84427078 17.16530926 54.98201027 10 40 C9.67 72.67 9.34 105.34 9 139 C10.98 139.99 10.98 139.99 13 141 C14.52813721 142.2943573 14.52813721 142.2943573 15.98925781 143.77807617 C16.54373596 144.33593307 17.09821411 144.89378998 17.66949463 145.46855164 C18.25809265 146.07060928 18.84669067 146.67266693 19.453125 147.29296875 C20.07217712 147.91722244 20.69122925 148.54147614 21.32904053 149.18464661 C23.30751147 151.1808997 25.27918743 153.183688 27.25 155.1875 C29.83514097 157.80937079 32.42343348 160.42806828 35.015625 163.04296875 C35.63401245 163.66680954 36.2523999 164.29065033 36.88952637 164.93339539 C40.62606127 168.68169448 44.42292895 172.30542957 48.47558594 175.71484375 C50.81300259 177.68540128 52.93636349 179.74289756 55 182 C55 182.66 55 183.32 55 184 C46.22914784 182.39538584 39.99331258 179.65787509 33.91015625 173.0546875 C32.1335585 171.14366415 30.30884147 169.48792646 28.3125 167.8125 C24.51651747 164.55559191 21.01482901 161.05297911 17.5 157.5 C12.05137993 152.00858246 12.05137993 152.00858246 6.4375 146.6875 C5.85871094 146.15511719 5.27992188 145.62273437 4.68359375 145.07421875 C2.77084002 143.64140827 2.77084002 143.64140827 -1 144 C-2.94389115 145.30114189 -2.94389115 145.30114189 -4.7578125 147.1484375 C-5.46107666 147.8194751 -6.16434082 148.4905127 -6.88891602 149.18188477 C-7.62682373 149.90561279 -8.36473145 150.62934082 -9.125 151.375 C-9.88546631 152.10581787 -10.64593262 152.83663574 -11.42944336 153.58959961 C-16.30348994 158.28929511 -21.09639462 163.06698621 -25.85546875 167.8828125 C-31.61030728 173.56427422 -37.46351498 179.19604436 -45.0625 182.1875 C-46.34833984 182.70376953 -46.34833984 182.70376953 -47.66015625 183.23046875 C-50 184 -50 184 -53 184 C-51.51556158 180.53891463 -49.55369767 178.31486374 -46.875 175.6875 C-46.15054688 174.96949219 -45.42609375 174.25148437 -44.6796875 173.51171875 C-42.65462884 171.61359525 -40.61110805 169.81230682 -38.5 168.015625 C-31.76843534 162.16555597 -25.63424809 155.65880658 -19.39257812 149.29663086 C-17.7269587 147.60099814 -16.05532413 145.91148699 -14.3828125 144.22265625 C-13.87138702 143.69777115 -13.35996155 143.17288605 -12.83303833 142.63209534 C-11.59282171 141.38304841 -10.30066105 140.18597483 -9 139 C-8.34 139 -7.68 139 -7 139 C-7.33 106.33 -7.66 73.66 -8 40 C-18.23843851 59.64753355 -18.23843851 59.64753355 -20.046875 79.21875 C-20.03091577 80.62636971 -20.02100306 82.03406898 -20.0166626 83.44177246 C-19.99450506 87.06407954 -19.91328551 90.6819601 -19.81085205 94.30279541 C-19.64896979 100.14793026 -19.55130477 105.99242899 -19.51200104 111.83961487 C-19.48504749 113.85594302 -19.41141807 115.87147651 -19.33660889 117.88659668 C-19.22038406 126.78956487 -19.22038406 126.78956487 -21.52067566 130.36100769 C-23.25882809 132.11945955 -24.98702933 133.57190371 -27 135 C-27.68707031 135.61488281 -28.37414062 136.22976562 -29.08203125 136.86328125 C-29.65308594 137.34152344 -30.22414062 137.81976563 -30.8125 138.3125 C-34.02333755 141.07618029 -37.02267165 143.98619596 -40 147 C-43.52106323 150.56400302 -47.13186008 153.90304168 -50.9375 157.15625 C-53.38924689 159.34796313 -55.68885573 161.66067104 -58 164 C-61.51847524 167.56138347 -65.12570412 170.89888084 -68.9296875 174.1484375 C-72.32911397 177.18867929 -75.48567193 180.46596999 -78.66015625 183.73828125 C-80.58947729 185.60318423 -82.31481451 186.90567527 -84.5625 188.3125 C-88.58146188 192.7436631 -87.98307935 198.22159876 -88 204 C-89.32 204 -90.64 204 -92 204 C-98.32802644 170.97743739 -98.32802644 170.97743739 -90.23712158 158.22045898 C-84.09393669 150.54187084 -76.61028125 144.19633815 -69.20849609 137.7734375 C-54.92404552 126.06600536 -54.92404552 126.06600536 -48.90943909 109.37384033 C-48.67052891 102.83272978 -49.44007621 96.35191989 -51 90 C-49.68 90 -48.36 90 -47 90 C-44.16013447 100.30215833 -42.41718117 111.96983164 -47 122 C-53.891751 131.98567191 -63.61280435 140.06628143 -72.77148438 147.90234375 C-73.68973999 148.71236343 -74.60799561 149.52238312 -75.55407715 150.35694885 C-77.29742037 151.8817032 -79.07891427 153.36434911 -80.90197754 154.79283142 C-84.94334611 158.31286345 -87.13219869 160.9568227 -87.53710938 166.36355591 C-87.63354383 170.60358784 -87.38282548 174.7783047 -87 179 C-86.34489441 178.3426738 -85.68978882 177.6853476 -85.01483154 177.00810242 C-78.83780512 170.81103114 -72.65836979 164.61637423 -66.47622299 158.42441082 C-63.29808242 155.24105377 -60.12087795 152.05677405 -56.94580078 148.87036133 C-53.88111503 145.79480285 -50.81398635 142.7217002 -47.74515533 139.65027809 C-46.57531827 138.47859469 -45.40636108 137.3060321 -44.23830414 136.13257408 C-42.60097539 134.48797677 -40.96053389 132.84654542 -39.31933594 131.20581055 C-38.59752388 130.47860558 -38.59752388 130.47860558 -37.86112976 129.73670959 C-35.88785145 127.76943993 -34.0410859 126.02634267 -31.68876648 124.51812744 C-29.75167011 123.09153084 -29.75167011 123.09153084 -29.5684967 120.51185608 C-29.59882492 119.5193132 -29.62915314 118.52677032 -29.66040039 117.50415039 C-29.68204254 116.37249451 -29.70368469 115.24083862 -29.72598267 114.07489014 C-29.76613495 112.84490295 -29.80628723 111.61491577 -29.84765625 110.34765625 C-29.88823542 107.72107376 -29.92463969 105.0946906 -29.95678711 102.46801758 C-29.96695107 101.78554144 -29.97711502 101.1030653 -29.98758698 100.39990807 C-30.61251604 57.03327985 -30.61251604 57.03327985 -18.01757812 37.37548828 C-14.24169807 31.05829109 -11.32900947 24.30110702 -8.27297974 17.61410522 C-6.55852521 13.88013326 -4.80024982 10.16708178 -3.04296875 6.453125 C-2.4492895 5.19441771 -1.85576513 3.93563734 -1.26245117 2.67675781 C-0.84584229 1.79342773 -0.4292334 0.91009766 0 0 Z " fill="#1195AA" transform="translate(255,18)"/>
<path d="M0 0 C6.0546875 0.5859375 6.0546875 0.5859375 9 1 C9.6523934 1.00385649 10.3047868 1.00771297 10.97694969 1.01168633 C20.85120243 1.79986607 26.65758924 9.60074724 33.17041016 16.26220703 C34.56916262 17.66321791 35.96968267 19.06246592 37.37182617 20.46008301 C41.16196047 24.24792683 44.92696261 28.05988484 48.6878705 31.876719 C52.62661237 35.86555218 56.58809974 39.83166452 60.54721069 43.80026245 C68.03580447 51.31369727 75.50377594 58.84728668 82.9645189 66.38836658 C91.46143293 74.97477376 99.98113943 83.53841107 108.50281835 92.1002295 C126.02732323 109.70830106 143.52307005 127.34471586 161 145 C165.04386108 143.39125722 167.71724269 140.52231421 170.69502258 137.46473694 C171.25955413 136.89344746 171.82408567 136.32215797 172.40572423 135.73355669 C174.29779125 133.81667065 176.18258332 131.89278537 178.06762695 129.96899414 C179.42265153 128.59376087 180.77820987 127.21905335 182.13426208 125.84483337 C185.05577232 122.88308687 187.97464445 119.91877265 190.8918705 116.95280647 C195.51143939 112.25845493 200.1440018 107.57707682 204.77983093 102.89878845 C205.56254421 102.1088004 206.34525749 101.31881234 207.15168935 100.50488526 C208.75244148 98.88932076 210.35322749 97.27378982 211.95404661 95.6582917 C222.74546161 84.76700992 233.52847459 73.86780053 244.27368164 62.9309082 C251.52218131 55.55329773 258.79194702 48.19738751 266.0867402 40.86553854 C269.94379075 36.98718101 273.78924125 33.09872504 277.608881 29.18348885 C281.20692576 25.49573452 284.83246463 21.83737087 288.48035622 18.19893837 C289.80861532 16.86422286 291.1267098 15.51929552 292.43319321 14.1632576 C301.0037614 5.28275208 307.39740978 0.77143452 320 0 C321.32 0 322.64 0 324 0 C322.73104671 2.77534745 321.42764478 4.82184757 319.27074242 6.97535324 C318.71290042 7.53717733 318.15505843 8.09900142 317.58031213 8.67785048 C316.96747704 9.2848599 316.35464194 9.89186931 315.72323608 10.51727295 C315.07224241 11.16997547 314.42124873 11.822678 313.75052798 12.49515939 C311.56416171 14.68482445 309.37071528 16.86725662 307.17724609 19.04980469 C305.61003905 20.6164477 304.04327204 22.18353102 302.47691345 23.75102234 C298.21923832 28.00927231 293.95541603 32.261319 289.69048643 36.51230145 C285.2359431 40.9543593 280.78704657 45.40206517 276.33755493 49.84918213 C268.86724855 57.31397457 261.39345816 64.77526458 253.91699219 72.23388672 C246.21640664 79.91611262 238.51792567 87.6004375 230.82226562 95.28759766 C230.11065535 95.99841976 230.11065535 95.99841976 229.38466911 96.72360191 C227.00470866 99.10095227 224.62478952 101.47834399 222.24489093 103.85575628 C202.50290307 123.57682767 182.75379075 143.2907516 163 163 C160.22737608 161.7317583 158.17864369 160.42887336 156.02464676 158.27632904 C155.46282267 157.71972044 154.90099858 157.16311185 154.32214952 156.58963633 C153.7151401 155.97816547 153.10813069 155.36669461 152.48272705 154.73669434 C151.50367326 153.76232052 151.50367326 153.76232052 150.50484061 152.76826239 C148.31516957 150.58657986 146.13272981 148.39780453 143.95019531 146.20898438 C142.38353766 144.64503614 140.8164547 143.08151384 139.24897766 141.51838684 C134.99051841 137.26905811 130.73842521 133.01341175 126.48769855 128.75634956 C122.04506041 124.30865668 117.59755472 119.86583555 113.15081787 115.42224121 C105.20719624 107.48249331 97.268633 99.53770704 89.33203527 91.59093994 C82.13026261 84.38022557 74.92325349 77.17477984 67.71240234 69.97314453 C59.3422355 61.61367015 50.97542234 53.25085769 42.61355853 44.88307619 C38.18574003 40.45213259 33.75656458 36.02256813 29.32389069 31.59648132 C25.15962498 27.4379718 21.00024184 23.27464085 16.84465599 19.10745811 C15.31447233 17.57461893 13.7825638 16.04349951 12.2488575 14.51418495 C10.16437833 12.43512734 8.08608889 10.35007906 6.00933838 8.26330566 C5.39340608 7.65183481 4.77747378 7.04036395 4.14287686 6.41036367 C0 2.22830034 0 2.22830034 0 0 Z " fill="#1291A7" transform="translate(94,331)"/>
<path d="M0 0 C-0.33 3.63 -0.66 7.26 -1 11 C-2.69125 11.37125 -4.3825 11.7425 -6.125 12.125 C-43.86355124 20.89378389 -79.74429762 34.10583915 -110 59 C-111.24955496 60.01877527 -112.49957836 61.03697617 -113.75 62.0546875 C-115.76024217 63.69134045 -117.76982886 65.3287234 -119.77612305 66.97021484 C-125.32191239 71.49331542 -130.98392793 75.8482179 -136.68530273 80.17260742 C-142.25475739 84.40523841 -147.73499779 88.73970635 -153.17993164 93.13110352 C-156.08409295 95.47319529 -159.00775195 97.77187634 -162 100 C-161.00669678 100.29132813 -160.01339355 100.58265625 -158.98999023 100.8828125 C-155.2708649 101.98144515 -151.56335072 103.11560815 -147.8581543 104.26025391 C-146.25982125 104.74870062 -144.65858138 105.22774652 -143.05444336 105.69677734 C-133.54488832 108.48482616 -126.79985308 110.53443505 -121 119 C-99.17441245 142.20582105 -70.27049962 159.95682441 -41 172 C-41.33 172.66 -41.66 173.32 -42 174 C-42.22467831 175.53668865 -42.40796805 177.07968054 -42.5625 178.625 C-42.64628906 179.44226563 -42.73007813 180.25953125 -42.81640625 181.1015625 C-42.87699219 181.72804688 -42.93757812 182.35453125 -43 183 C-64.41310552 177.94924292 -85.05699804 164.62564678 -102 151 C-103.25108076 150.01534373 -104.50239828 149.03098822 -105.75390625 148.046875 C-126.02200778 131.96877819 -126.02200778 131.96877819 -134.29302979 122.52337646 C-136.36637498 120.6730306 -138.1334362 120.05809095 -140.77514648 119.20654297 C-141.74302597 118.88966522 -142.71090546 118.57278748 -143.70811462 118.24630737 C-144.75189774 117.91494781 -145.79568085 117.58358826 -146.87109375 117.2421875 C-148.48190575 116.7194072 -148.48190575 116.7194072 -150.1252594 116.18606567 C-153.55997282 115.07380801 -156.99866709 113.97444668 -160.4375 112.875 C-162.75091221 112.12710945 -165.06406662 111.37842097 -167.37695312 110.62890625 C-171.61495786 109.25947006 -175.85338351 107.89144755 -180.09545898 106.53466797 C-180.94800766 106.26169891 -181.80055634 105.98872986 -182.67893982 105.70748901 C-184.77452136 105.06872879 -186.8695117 104.50836246 -189 104 C-188 101 -188 101 -185.21875 99.4140625 C-183.98093606 98.81404436 -182.74119553 98.21799138 -181.5 97.625 C-172.85981742 93.26412354 -165.51629548 87.57688595 -157.97216797 81.56347656 C-155.15882601 79.33314208 -152.29728696 77.17046872 -149.4375 75 C-144.58132649 71.26401614 -139.81022139 67.43512012 -135.0625 63.5625 C-97.3367881 32.81970466 -58.12909064 10.85311756 -10 1 C-9.18402344 0.81550293 -8.36804688 0.63100586 -7.52734375 0.44091797 C-5 0 -5 0 0 0 Z " fill="#03B1C0" transform="translate(250,204)"/>
<path d="M0 0 C1.8450901 1.51644085 3.70581317 3.01107435 5.57275391 4.50048828 C6.68094889 5.39486831 7.78902877 6.28939098 8.89697266 7.18408203 C9.86634766 7.96009766 10.83572266 8.73611328 11.83447266 9.53564453 C12.51509766 10.20337891 13.19572266 10.87111328 13.89697266 11.55908203 C13.89697266 12.54908203 13.89697266 13.53908203 13.89697266 14.55908203 C7.88515557 15.53317351 2.93511204 15.86033668 -2.33349609 12.49658203 C-5.13260313 10.15608821 -7.7585063 7.62584399 -10.40087891 5.11132812 C-13.22164264 2.53897933 -16.26474372 0.29760208 -19.35302734 -1.94091797 C-19.97564453 -2.39305664 -20.59826172 -2.84519531 -21.23974609 -3.31103516 C-28.67340127 -8.6440393 -36.34077469 -13.60254732 -44.10302734 -18.44091797 C-44.79122559 -18.87291504 -45.47942383 -19.30491211 -46.18847656 -19.75 C-62.7097861 -30.04996123 -80.33754302 -38.17163172 -99.10302734 -43.44091797 C-99.83827637 -43.65119629 -100.57352539 -43.86147461 -101.33105469 -44.078125 C-112.44098322 -47.11992854 -123.43835357 -47.82633914 -134.91552734 -47.87841797 C-136.19000732 -47.88856934 -137.4644873 -47.8987207 -138.77758789 -47.90917969 C-151.46962159 -47.79285175 -163.49542681 -45.36796845 -175.47802734 -41.25341797 C-176.368125 -40.95008545 -177.25822266 -40.64675293 -178.17529297 -40.33422852 C-203.20279181 -31.57952355 -226.10687979 -17.19966831 -247.29052734 -1.44091797 C-248.29913818 -0.69213379 -248.29913818 -0.69213379 -249.328125 0.07177734 C-252.46524505 2.43671869 -255.47034537 4.8385272 -258.32177734 7.54345703 C-263.50006771 12.40737814 -266.97215154 15.16815781 -274.35302734 15.18408203 C-276.27450894 15.02621383 -278.19506873 14.83604377 -280.10302734 14.55908203 C-279.76684434 11.6692012 -279.1846854 10.6377792 -277.05615234 8.58642578 C-275.71810547 7.55195313 -275.71810547 7.55195313 -274.35302734 6.49658203 C-273.34884766 5.70638672 -272.34466797 4.91619141 -271.31005859 4.10205078 C-270.77977051 3.68616699 -270.24948242 3.2702832 -269.703125 2.84179688 C-267.61909102 1.17113552 -265.60999961 -0.58300531 -263.59765625 -2.33886719 C-191.01591204 -65.36139767 -109.48759978 -77.93195054 0 0 Z " fill="#138EA5" transform="translate(389.10302734375,286.44091796875)"/>
<path d="M0 0 C10.86224191 8.04886536 16.97648094 18.64737136 19.96484375 31.6875 C21.52867476 46.70027772 17.55337588 60.11375842 8.08984375 71.9375 C3.80162932 76.53672779 -1.21781057 79.71292539 -6.72265625 82.6875 C-7.53089844 83.12449219 -8.33914063 83.56148438 -9.171875 84.01171875 C-19.22997947 88.51181258 -33.36336708 88.5889328 -43.78515625 85.125 C-46.27734375 84.0078125 -46.27734375 84.0078125 -48.72265625 82.6875 C-49.65335938 82.18992187 -50.5840625 81.69234375 -51.54296875 81.1796875 C-63.6985723 74.05855735 -70.80527719 64.17377568 -74.53515625 50.6875 C-77.24022809 38.5533206 -75.89871755 25.63406392 -69.29296875 14.875 C-61.10652749 3.47100223 -51.11415891 -4.52046503 -37.33203125 -7.8984375 C-23.93575394 -10.02419408 -11.36306688 -7.366656 0 0 Z M-55.72265625 15.6875 C-56.40328125 16.409375 -57.08390625 17.13125 -57.78515625 17.875 C-63.56186734 26.26054836 -65.56638496 35.6889924 -64.3515625 45.765625 C-62.40278894 55.2068882 -57.43385408 63.41937403 -49.76953125 69.37109375 C-40.20894602 75.51979074 -30.82616368 77.04348389 -19.72265625 75.6875 C-10.45981999 73.34764102 -2.54590813 68.30055851 2.87109375 60.34765625 C8.35343201 50.76950132 10.60168811 41.47948408 8.21484375 30.5 C6.55786329 24.75680076 4.03989226 20.30396023 0.27734375 15.6875 C-0.23699219 15.04941406 -0.75132812 14.41132813 -1.28125 13.75390625 C-7.39322574 6.93839373 -15.99211602 3.27571528 -25.046875 2.484375 C-37.32662631 2.24080968 -47.48226049 6.53150471 -55.72265625 15.6875 Z " fill="#128FA6" transform="translate(282.72265625,260.3125)"/>
<path d="M0 0 C0.99 0.33 1.98 0.66 3 1 C-5.83615752 15.59630636 -14.69603818 30.17536308 -23.6953125 44.671875 C-32.59538111 59.00937154 -41.42557868 73.3902007 -50.1875 87.8125 C-56.28020783 97.83950468 -62.42462337 107.8333801 -68.62695312 117.79296875 C-69.85428445 119.76577727 -71.07611894 121.74187034 -72.296875 123.71875 C-72.92078125 124.7190625 -73.5446875 125.719375 -74.1875 126.75 C-74.95126953 127.97976562 -74.95126953 127.97976562 -75.73046875 129.234375 C-77 131 -77 131 -79 132 C-78.42834741 127.23974086 -77.4748238 122.94701652 -75.93359375 118.41015625 C-75.53076172 117.21455078 -75.12792969 116.01894531 -74.71289062 114.78710938 C-74.29201172 113.55798828 -73.87113281 112.32886719 -73.4375 111.0625 C-73.00790487 109.79380883 -72.57886341 108.52493004 -72.15039062 107.25585938 C-71.10568206 104.16868688 -70.05540218 101.08352965 -69 98 C-70.17755859 99.28583984 -70.17755859 99.28583984 -71.37890625 100.59765625 C-81.68068249 111.81776975 -81.68068249 111.81776975 -86.6953125 116.6328125 C-89.91230553 120.00391298 -90.24186711 122.18178525 -90.20776367 126.67382812 C-90.20503952 127.83934204 -90.20231537 129.00485596 -90.19950867 130.20568848 C-90.18389641 132.09934143 -90.18389641 132.09934143 -90.16796875 134.03125 C-90.172194 136.02039533 -90.17646228 138.00954158 -90.18316364 139.99868011 C-90.1981553 144.89939448 -90.19624318 149.79961999 -90.15454102 154.70019531 C-90.13213688 157.44695 -90.12857313 160.19253458 -90.14509583 162.93933105 C-90.15997839 165.52045752 -90.14827249 168.10192003 -90.10575867 170.68273926 C-90.2003628 179.32361534 -92.17774623 185.44553507 -98 192 C-98.66 192 -99.32 192 -100 192 C-100.37333449 181.7337776 -100.65628603 171.46920801 -100.82899475 161.19754124 C-100.91196236 156.42569733 -101.02412557 151.65854633 -101.20703125 146.8894043 C-102.51814798 111.79186388 -102.51814798 111.79186388 -94.54663086 102.47459412 C-91.86742345 99.91799546 -89.08362587 97.69265307 -86.05041504 95.57199097 C-82.51146557 92.85878584 -79.82951205 89.41906974 -77 86 C-76.05961568 84.95152836 -75.1121118 83.90938082 -74.15625 82.875 C-68.28892414 76.53218398 -68.28892414 76.53218398 -62.5625 70.0625 C-58.93855356 65.87967989 -55.16744254 61.83728193 -51.40478516 57.77978516 C-48.15135213 54.26517971 -44.96591238 50.70391333 -41.83203125 47.08203125 C-39.00135739 43.86508207 -36.09232984 40.7202932 -33.19165039 37.56665039 C-28.75763061 32.74396118 -24.37474091 27.87650331 -20 23 C-18.50028872 21.33307353 -17.00028679 19.66640851 -15.5 18 C-14.39978516 16.77603516 -14.39978516 16.77603516 -13.27734375 15.52734375 C-11.69017454 13.76593984 -10.09869047 12.00841847 -8.50390625 10.25390625 C-7.29541016 8.92166016 -7.29541016 8.92166016 -6.0625 7.5625 C-5.33160156 6.75941406 -4.60070312 5.95632812 -3.84765625 5.12890625 C-1.86672419 2.93707035 -1.86672419 2.93707035 0 0 Z " fill="#01B3C3" transform="translate(201,72)"/>
<path d="M0 0 C3 0 3 0 4.4375 1.328125 C4.953125 1.96234375 5.46875 2.5965625 6 3.25 C9.07442556 6.92367801 12.24739176 10.48408537 15.5 14 C18.53971416 17.2995013 21.56158155 20.60951717 24.5 24 C27.86322638 27.87817013 31.33335671 31.65527811 34.80810547 35.43310547 C39.24223628 40.25584891 43.6251824 45.1234112 48 50 C49.49971128 51.66692647 50.99971321 53.33359149 52.5 55 C54.72829114 57.47502234 56.9557884 59.95071754 59.1796875 62.4296875 C63.30097768 67.0203061 67.44873788 71.58447107 71.625 76.125 C75.1837745 79.99503048 78.68497598 83.90641114 82.12890625 87.87890625 C85.38037305 91.56480703 88.72515926 95.16570907 92.05859375 98.77734375 C92.51270126 99.29466064 92.96680878 99.81197754 93.43467712 100.3449707 C95.00142152 102.07418349 95.00142152 102.07418349 97.00978088 103.62963867 C101.49936506 107.6633308 103.44334456 111.02583472 103.84998989 117.13572693 C103.95427637 121.29468031 103.8827864 125.4393684 103.78125 129.59765625 C103.7663085 131.40080748 103.75493051 133.20399143 103.74694824 135.00718689 C103.71656347 139.72788918 103.63812236 144.44658747 103.54931641 149.16650391 C103.46712709 153.99288835 103.43086652 158.81960018 103.390625 163.64648438 C103.30511154 173.09853144 103.16877379 182.54909837 103 192 C98.64702405 190.54900802 97.49133885 187.92808945 95.26358032 184.04101562 C92.9780623 178.54053743 93.33351687 173.11938782 93.51171875 167.25 C93.5233928 165.2725686 93.53501354 163.29513528 93.54358387 161.31768799 C93.57453039 156.49101609 93.67255836 151.66540627 93.77661133 146.83984375 C93.83305124 144.11651842 93.86485685 141.39479408 93.87226868 138.67089844 C93.88166377 136.12162327 93.92829866 133.57211964 94.01823425 131.02441406 C94.01837946 124.28688342 93.26902815 120.52472262 88.71411133 115.4140625 C87.168265 113.91591455 85.59721888 112.44325327 84 111 C82.55644483 109.54766022 81.1178876 108.09031009 79.6875 106.625 C78.45972999 105.41524757 77.23059481 104.20687885 76 103 C74.66597357 101.66736013 73.33255686 100.33410935 72 99 C72.3081665 99.85754883 72.61633301 100.71509766 72.93383789 101.59863281 C74.07361558 104.78629672 75.2036942 107.97706022 76.32739258 111.17041016 C76.81541465 112.5510053 77.30724812 113.93025937 77.80297852 115.30810547 C78.51547838 117.29052735 79.21406714 119.27739075 79.91015625 121.265625 C80.33433838 122.45961914 80.75852051 123.65361328 81.19555664 124.88378906 C81.96526971 127.86546361 82.12111677 129.19265069 81 132 C76.22400085 125.38141133 71.89202099 118.62843711 67.8125 111.5625 C63.67887954 104.48421932 59.47105409 97.47304688 55.0625 90.5625 C50.71002842 83.73551588 46.44871662 76.8601701 42.25 69.9375 C37.23550708 61.67056958 32.19557968 53.42016409 27.125 45.1875 C26.46701416 44.11846436 25.80902832 43.04942871 25.13110352 41.94799805 C21.97869427 36.82825263 18.82246795 31.71091591 15.65765381 26.59883118 C14.18668339 24.22211138 12.71760235 21.84422667 11.24871826 19.46621704 C10.21407027 17.79296981 9.17665121 16.12143706 8.13916016 14.44995117 C7.19435791 12.92011597 7.19435791 12.92011597 6.23046875 11.359375 C5.67770264 10.46702148 5.12493652 9.57466797 4.55541992 8.65527344 C2.8999499 5.82920343 1.43388636 2.94382237 0 0 Z " fill="#1291A7" transform="translate(308,72)"/>
<path d="M0 0 C6.0546875 0.5859375 6.0546875 0.5859375 9 1 C9.67989896 1.03412365 10.35979792 1.0682473 11.06029987 1.103405 C19.88684573 2.05267703 24.84700483 7.66664417 30.79956055 13.65332031 C31.94392312 14.77535391 33.08990925 15.89573365 34.23738098 17.0145874 C37.33457728 20.04565671 40.40570325 23.10187777 43.47064567 26.16552067 C46.03631836 28.72654861 48.61306175 31.27630212 51.18937808 33.8266151 C57.26873673 39.8461293 63.32553845 45.88771872 69.36987305 51.94238281 C75.595226 58.17738382 81.86198767 64.36846753 88.14986962 70.54034734 C93.55787595 75.85214708 98.93639395 81.19262094 104.29296905 86.55627894 C107.48799327 89.75463847 110.69336151 92.94051886 113.92865562 96.09818268 C116.97099169 99.06961063 119.97481416 102.0752979 122.95347404 105.11051178 C124.0486546 106.21430025 125.15663171 107.30556875 126.2782402 108.38249207 C134.73843988 116.52765666 134.73843988 116.52765666 135.40955544 122.87123871 C135.17660367 126.34411124 134.7523574 129.60477949 134 133 C130.41013843 133 129.65131581 132.00942334 127.18407804 129.58064616 C126.68310234 129.07229617 126.18212663 128.56394618 125.66596985 128.04019165 C125.12846121 127.50665742 124.59095258 126.9731232 124.03715581 126.42342126 C122.2288918 124.6248202 120.43159462 122.81564062 118.6340332 121.00634766 C117.34359643 119.7183375 116.0525144 118.43097354 114.76083374 117.14421082 C111.24796296 113.64076984 107.74460838 110.12795165 104.24310708 106.61315203 C100.58433541 102.94309243 96.91788391 99.28071978 93.25248718 95.61727905 C87.09791739 89.46359302 80.9493664 83.30394318 74.80444336 77.140625 C67.69040041 70.00540851 60.5675627 62.87906736 53.43980724 55.75755084 C46.59483669 48.91826606 39.75553737 42.07333856 32.91902733 35.22559738 C30.00409787 32.30601197 27.08727892 29.38833342 24.16897011 26.47212601 C20.73591737 23.04095073 17.30787288 19.60484973 13.88370895 16.16480446 C12.62282015 14.89965698 11.36020992 13.63622257 10.09580421 12.37458992 C8.37690188 10.65888723 6.66422611 8.93720804 4.95307922 7.21377563 C4.44541136 6.70988709 3.93774349 6.20599855 3.41469175 5.68684065 C0 2.22832877 0 2.22832877 0 0 Z " fill="#02B1C1" transform="translate(94,331)"/>
<path d="M0 0 C-1.44322159 3.01014789 -3.0991124 5.80014252 -4.875 8.625 C-13.87157866 23.61198347 -16.12266996 39.38194466 -12.08984375 56.38671875 C-7.41136016 71.89782025 1.7165439 83.83712687 15.92993164 91.54077148 C31.66205825 99.60155548 50.21501347 100.37659155 67 95 C82.73799398 88.9362943 93.80071535 78.65279865 101.23828125 63.47265625 C107.23403459 49.67152219 107.44269649 35.27800814 103 21 C98.78357336 10.65574023 98.78357336 10.65574023 92 2 C92 1.34 92 0.68 92 0 C99.29335755 3.06416772 103.65637586 11.2533752 106.8671875 18.1640625 C113.57831726 34.96502872 114.64332051 52.65309911 107.5234375 69.4921875 C98.99124486 88.10013538 84.39603553 101.1566785 65.32788086 108.33544922 C49.71538947 113.64826351 32.9979619 112.37127301 18.05078125 105.6796875 C1.37386326 97.16678375 -11.30198639 83.34463339 -17.375 65.5625 C-21.55895882 52.19202289 -21.56528205 37.2808205 -17 24 C-16.73316406 23.154375 -16.46632812 22.30875 -16.19140625 21.4375 C-14.09435492 15.47255399 -7.28496213 0 0 0 Z " fill="#02B2C2" transform="translate(209,257)"/>
<path d="M0 0 C0.99 0.495 0.99 0.495 2 1 C2.45854118 3.52349485 2.74553885 5.89112378 2.9375 8.4375 C3.01806641 9.11232422 3.09863281 9.78714844 3.18164062 10.48242188 C3.52271655 14.95851708 2.86045213 17.51585977 0.50756836 21.34326172 C-2.65130834 27.45959647 -2.63271596 33.09873425 -2.49988937 39.88107872 C-2.46003165 41.9973147 -2.45404781 44.11139443 -2.45645142 46.22798157 C-2.45681187 52.23590147 -2.3928442 58.24283354 -2.31933594 64.25024414 C-2.27641883 67.94492901 -2.26765933 71.63851717 -2.2783699 75.33341408 C-2.27353368 77.40796193 -2.22859621 79.47916499 -2.18270874 81.55314636 C-2.21043088 92.03948176 -2.21043088 92.03948176 -6.4152832 96.29296875 C-7.58304262 97.23017821 -8.7751326 98.1387663 -10 99 C-10.68707031 99.61488281 -11.37414062 100.22976562 -12.08203125 100.86328125 C-12.65308594 101.34152344 -13.22414062 101.81976563 -13.8125 102.3125 C-17.02333755 105.07618029 -20.02267165 107.98619596 -23 111 C-26.52106323 114.56400302 -30.13186008 117.90304168 -33.9375 121.15625 C-36.38924689 123.34796313 -38.68885573 125.66067104 -41 128 C-44.51847524 131.56138347 -48.12570412 134.89888084 -51.9296875 138.1484375 C-55.32911397 141.18867929 -58.48567193 144.46596999 -61.66015625 147.73828125 C-63.58947729 149.60318423 -65.31481451 150.90567527 -67.5625 152.3125 C-71.58146188 156.7436631 -70.98307935 162.22159876 -71 168 C-72.32 168 -73.64 168 -75 168 C-81.32802644 134.97743739 -81.32802644 134.97743739 -73.23712158 122.22045898 C-67.09393669 114.54187084 -59.61028125 108.19633815 -52.20849609 101.7734375 C-37.92404552 90.06600536 -37.92404552 90.06600536 -31.90943909 73.37384033 C-31.67052891 66.83272978 -32.44007621 60.35191989 -34 54 C-32.68 54 -31.36 54 -30 54 C-27.16013447 64.30215833 -25.41718117 75.96983164 -30 86 C-36.891751 95.98567191 -46.61280435 104.06628143 -55.77148438 111.90234375 C-56.68973999 112.71236343 -57.60799561 113.52238312 -58.55407715 114.35694885 C-60.29742037 115.8817032 -62.07891427 117.36434911 -63.90197754 118.79283142 C-67.94334611 122.31286345 -70.13219869 124.9568227 -70.53710938 130.36355591 C-70.63354383 134.60358784 -70.38282548 138.7783047 -70 143 C-69.34489441 142.3426738 -68.68978882 141.6853476 -68.01483154 141.00810242 C-61.83780512 134.81103114 -55.65836979 128.61637423 -49.47622299 122.42441082 C-46.29808242 119.24105377 -43.12087795 116.05677405 -39.94580078 112.87036133 C-36.88111503 109.79480285 -33.81398635 106.7217002 -30.74515533 103.65027809 C-29.57531827 102.47859469 -28.40636108 101.3060321 -27.23830414 100.13257408 C-25.60097539 98.48797677 -23.96053389 96.84654542 -22.31933594 95.20581055 C-21.8381279 94.72100723 -21.35691986 94.23620392 -20.86112976 93.73670959 C-18.88816644 91.76975396 -17.04235333 90.02713059 -14.6897583 88.52011108 C-12.7506798 87.09004036 -12.7506798 87.09004036 -12.56176758 84.49839783 C-12.6027356 83.0005349 -12.6027356 83.0005349 -12.64453125 81.47241211 C-12.66354492 80.33529282 -12.68255859 79.19817352 -12.70214844 78.02659607 C-12.73856445 76.7893428 -12.77498047 75.55208954 -12.8125 74.27734375 C-12.83074189 72.3067964 -12.8489007 70.33624518 -12.86282349 68.36566257 C-12.90089269 63.52877643 -12.97360534 58.69370376 -13.11279297 53.85864258 C-13.68279859 33.00216453 -10.45422461 18.10168269 0 0 Z " fill="#09A5B7" transform="translate(238,54)"/>
<path d="M0 0 C-0.33 3.96 -0.66 7.92 -1 12 C-2.12792969 12.07476562 -3.25585938 12.14953125 -4.41796875 12.2265625 C-46.24001575 15.50698775 -91.00841125 39.33466047 -121.26953125 68.04296875 C-126.43862436 72.88883774 -129.89108962 75.60121042 -137.25 75.625 C-139.17148159 75.46713179 -141.09204138 75.27696173 -143 75 C-142.663817 72.11011917 -142.08165805 71.07869717 -139.953125 69.02734375 C-138.61507812 67.99287109 -138.61507812 67.99287109 -137.25 66.9375 C-136.24582031 66.14730469 -135.24164063 65.35710937 -134.20703125 64.54296875 C-133.67674316 64.12708496 -133.14645508 63.71120117 -132.60009766 63.28271484 C-130.51606367 61.61205348 -128.50697226 59.85791266 -126.49462891 58.10205078 C-92.52548673 28.6067373 -46.38549628 0 0 0 Z " fill="#06ABBB" transform="translate(252,226)"/>
<path d="M0 0 C-0.33 3.63 -0.66 7.26 -1 11 C-2.69125 11.37125 -4.3825 11.7425 -6.125 12.125 C-38.33732465 19.60973124 -67.30300818 30.41763423 -95.38378906 48.05712891 C-97 49 -97 49 -98 49 C-98.33 44.71 -98.66 40.42 -99 36 C-70.72396981 19.31164916 -42.18257698 7.58850417 -10 1 C-9.18402344 0.81550293 -8.36804688 0.63100586 -7.52734375 0.44091797 C-5 0 -5 0 0 0 Z " fill="#08A7B9" transform="translate(250,204)"/>
<path d="M0 0 C0.47037276 4.09616277 0.69916551 7.92242408 0 12 C-2.28734791 14.47100358 -4.99005829 15.57364702 -8 17 C-15.80716304 23.71779145 -19.58199117 31.87315815 -21 42 C-21.32930294 52.52452184 -18.21680954 60.90346144 -11.78515625 69.14453125 C-9.15807908 71.87508192 -6.17778961 73.81012129 -2.953125 75.7734375 C-1 77 -1 77 1 79 C0.9765625 81.6015625 0.9765625 81.6015625 0.625 84.625 C0.51414063 85.62789063 0.40328125 86.63078125 0.2890625 87.6640625 C0.14597656 88.82035156 0.14597656 88.82035156 0 90 C-12.23182573 86.28740773 -21.74631886 78.4198354 -27.8125 67.1875 C-34.01316211 53.67592209 -34.38380768 41.09207813 -30 27 C-25.65955678 16.20846666 -12.80551513 0 0 0 Z " fill="#02B2C2" transform="translate(240,255)"/>
<path d="M0 0 C0.99 0.33 1.98 0.66 3 1 C-5.3151957 14.73573791 -13.63231456 28.46914522 -22.10522461 42.10839844 C-25.45041577 47.4935686 -28.77774564 52.88930037 -32.09263611 58.29318237 C-35.71771343 64.20207363 -39.35465462 70.10358878 -43 76 C-43.51208008 76.82935059 -44.02416016 77.65870117 -44.55175781 78.51318359 C-45.81775566 80.55590261 -47.09341434 82.59203743 -48.375 84.625 C-49.04273438 85.68976563 -49.71046875 86.75453125 -50.3984375 87.8515625 C-50.92695313 88.56054688 -51.45546875 89.26953125 -52 90 C-52.66 90 -53.32 90 -54 90 C-54.3435071 86.01899805 -54.63003396 82.03813213 -54.86669922 78.04931641 C-54.95470457 76.69635503 -55.05760973 75.34427045 -55.17626953 73.99365234 C-56.14602391 62.77931321 -56.14602391 62.77931321 -53.33129883 58.40917969 C-51.32081894 56.41002189 -49.24747709 54.7221925 -47 53 C-45.86672341 51.77633002 -44.75772259 50.52918241 -43.6875 49.25 C-40.7306288 45.81491046 -37.69442837 42.45938846 -34.625 39.125 C-29.71180616 33.78388013 -24.84620499 28.40204212 -20 23 C-18.50028872 21.33307353 -17.00028679 19.66640851 -15.5 18 C-14.39978516 16.77603516 -14.39978516 16.77603516 -13.27734375 15.52734375 C-11.69017454 13.76593984 -10.09869047 12.00841847 -8.50390625 10.25390625 C-7.29541016 8.92166016 -7.29541016 8.92166016 -6.0625 7.5625 C-5.33160156 6.75941406 -4.60070312 5.95632812 -3.84765625 5.12890625 C-1.86672419 2.93707035 -1.86672419 2.93707035 0 0 Z " fill="#1193A9" transform="translate(201,72)"/>
<path d="M0 0 C1.32 0 2.64 0 4 0 C6.83986553 10.30215833 8.58281883 21.96983164 4 32 C-2.891751 41.98567191 -12.61280435 50.06628143 -21.77148438 57.90234375 C-31.92574823 65.83768512 -31.92574823 65.83768512 -37.25 76.96923828 C-37.44428078 81.1304633 -36.93406091 84.95013243 -36 89 C-35.5409024 88.53646118 -35.08180481 88.07292236 -34.60879517 87.59533691 C-29.84578189 82.78820598 -25.07584526 77.98802709 -20.30175781 73.19189453 C-18.51903197 71.39908761 -16.7381021 69.60449301 -14.95898438 67.80810547 C-12.40700562 65.23197101 -9.84871697 62.66225508 -7.2890625 60.09375 C-6.49005524 59.28442017 -5.69104797 58.47509033 -4.86782837 57.64123535 C-3.75690323 56.53008362 -3.75690323 56.53008362 -2.62353516 55.39648438 C-1.97067535 54.73918335 -1.31781555 54.08188232 -0.64517212 53.40466309 C1 52 1 52 3 52 C4.0844956 56.3138825 4.14371267 59.6844526 3 64 C-1.0402919 69.7982815 -6.69162917 74.39874261 -12 79 C-12.80050781 79.7115625 -13.60101563 80.423125 -14.42578125 81.15625 C-15.6421154 82.22400503 -16.86808292 83.28093266 -18.10546875 84.32421875 C-21.45843173 87.29003549 -24.54456436 90.52667729 -27.66015625 93.73828125 C-29.58947729 95.60318423 -31.31481451 96.90567527 -33.5625 98.3125 C-37.58146188 102.7436631 -36.98307935 108.22159876 -37 114 C-38.32 114 -39.64 114 -41 114 C-47.32802644 80.97743739 -47.32802644 80.97743739 -39.23712158 68.22045898 C-33.09393669 60.54187084 -25.61028125 54.19633815 -18.20849609 47.7734375 C-3.92404552 36.06600536 -3.92404552 36.06600536 2.09056091 19.37384033 C2.32947109 12.83272978 1.55992379 6.35191989 0 0 Z " fill="#02B3C2" transform="translate(204,108)"/>
<path d="M0 0 C3.85619295 1.59399879 6.56453932 4.1959185 9.51879883 7.05371094 C10.326754 7.82508644 10.326754 7.82508644 11.15103149 8.61204529 C16.76417302 13.98814629 22.31240389 19.4319526 27.85522461 24.88037109 C30.4831943 27.45933454 33.13026965 30.01593597 35.79663086 32.55517578 C39.02501902 35.63002375 42.21456799 38.74063123 45.38062096 41.87958527 C46.58828658 43.06468957 47.80875515 44.23690066 49.04221535 45.39513397 C58.67950963 54.47368746 58.67950963 54.47368746 59.50033569 60.94396973 C59.2652453 64.41666934 58.82466921 67.62248617 58 71 C53.87444137 71 52.30608852 68.82237159 49.50292969 66.09741211 C48.95468536 65.57530655 48.40644104 65.05320099 47.84158325 64.51527405 C46.02549069 62.77889178 44.22223238 61.03003006 42.421875 59.27734375 C41.80555458 58.67824251 41.18923416 58.07914127 40.55423737 57.46188545 C37.29039472 54.28414782 34.03810513 51.09502422 30.79296875 47.89819336 C28.11184167 45.2614515 25.40971237 42.64961314 22.68554688 40.05737305 C19.39102265 36.92232108 16.13815013 33.74916602 12.91049957 30.54535103 C11.67845372 29.33519909 10.43286832 28.13866344 9.17354584 26.95692253 C-1.17884259 17.20739129 -1.17884259 17.20739129 -1.51599121 10.80886841 C-1.40903694 7.12549347 -0.82443179 3.59295334 0 0 Z " fill="#09A6B8" transform="translate(170,393)"/>
<path d="M0 0 C2.1003418 0.29199219 2.1003418 0.29199219 4.69921875 1.046875 C5.65352783 1.31419434 6.60783691 1.58151367 7.59106445 1.85693359 C8.61288818 2.15164551 9.63471191 2.44635742 10.6875 2.75 C33.10249647 8.87401398 53.23618673 8.98099551 76 5 C77.99988186 4.6659586 79.99982589 4.33228699 82 4 C82 7.96 82 11.92 82 16 C79.6884626 16.48423511 77.37592629 16.96244112 75.0625 17.4375 C73.77472656 17.70433594 72.48695313 17.97117187 71.16015625 18.24609375 C47.10500375 22.83211711 21.9987019 20.02213191 -1 12 C-2.58894072 10.41105928 -2.16998411 8.75198576 -2.1875 6.5625 C-2.20167969 5.75941406 -2.21585938 4.95632813 -2.23046875 4.12890625 C-2 2 -2 2 0 0 Z " fill="#0E9DB0" transform="translate(209,376)"/>
<path d="M0 0 C7.29335755 3.06416772 11.65637586 11.2533752 14.8671875 18.1640625 C21.57831726 34.96502872 22.64332051 52.65309911 15.5234375 69.4921875 C7.1449668 87.76488161 -7.02000017 100.519787 -25.5625 108 C-28.66430206 108.90234242 -30.82529434 109.08682956 -34 109 C-34.1352403 107.39815374 -34.23210847 105.79303374 -34.3125 104.1875 C-34.37050781 103.29417969 -34.42851562 102.40085937 -34.48828125 101.48046875 C-34 99 -34 99 -31.86328125 97.3125 C-28.90670037 95.95723237 -25.95369306 94.86016336 -22.875 93.8125 C-16.00047471 91.2228881 -10.62860555 87.67690896 -5 83 C-4.35417969 82.47921875 -3.70835937 81.9584375 -3.04296875 81.421875 C7.69989349 71.81877467 13.11994745 56.86997704 14.16015625 42.83984375 C14.68138342 28.90268251 9.93010355 16.80632561 3 5 C2.02315688 3.97736736 1.0333312 2.96551884 0 2 C0 1.34 0 0.68 0 0 Z " fill="#1588A0" transform="translate(301,257)"/>
<path d="M0 0 C0 8.91 0 17.82 0 27 C0.66 27.33 1.32 27.66 2 28 C1.0234375 29.5625 0.046875 31.125 -0.9296875 32.6875 C-1.55593018 33.68966553 -2.18217285 34.69183105 -2.82739258 35.72436523 C-4.19637831 37.9143833 -5.566011 40.10399708 -6.9362793 42.29321289 C-10.02326184 47.2267716 -13.10638866 52.16207559 -16.15234375 57.12109375 C-16.60818848 57.86037109 -17.0640332 58.59964844 -17.53369141 59.36132812 C-18.36945709 60.71821078 -19.20133697 62.07749662 -20.02880859 63.43945312 C-22.77612567 67.88806284 -22.77612567 67.88806284 -25 69 C-24.42834741 64.23974086 -23.4748238 59.94701652 -21.93359375 55.41015625 C-21.53076172 54.21455078 -21.12792969 53.01894531 -20.71289062 51.78710938 C-20.29201172 50.55798828 -19.87113281 49.32886719 -19.4375 48.0625 C-19.00790487 46.79380883 -18.57886341 45.52493004 -18.15039062 44.25585938 C-17.10568206 41.16868688 -16.05540218 38.08352965 -15 35 C-15.99 35.66 -16.98 36.32 -18 37 C-18.16781295 34.39590255 -18.33429651 31.7917318 -18.5 29.1875 C-18.54769531 28.44951172 -18.59539062 27.71152344 -18.64453125 26.95117188 C-19.19661959 18.23606304 -19.19661959 18.23606304 -17.71484375 16.45703125 C-17.12832031 15.91433594 -16.54179687 15.37164062 -15.9375 14.8125 C-12.61478949 11.64449059 -9.62325965 8.31415233 -6.67578125 4.796875 C-2.20217391 0 -2.20217391 0 0 0 Z " fill="#0AA5B7" transform="translate(147,135)"/>
<path d="M0 0 C4.16071507 2.21904804 7.88014409 4.63312466 11.625 7.5 C25.5370911 17.72891746 41.10080873 25.39960314 57 32 C56.505 32.99 56.505 32.99 56 34 C55.77532169 35.53668865 55.59203195 37.07968054 55.4375 38.625 C55.35371094 39.44226563 55.26992187 40.25953125 55.18359375 41.1015625 C55.12300781 41.72804688 55.06242187 42.35453125 55 43 C38.02299881 38.99559677 22.48798709 29.37789525 8 20 C6.83718506 19.28577881 6.83718506 19.28577881 5.65087891 18.55712891 C0.20321891 14.94903233 0.20321891 14.94903233 -0.78125 10.3515625 C-0.6884375 9.12179687 -0.595625 7.89203125 -0.5 6.625 C-0.4278125 5.37976563 -0.355625 4.13453125 -0.28125 2.8515625 C-0.1884375 1.91054688 -0.095625 0.96953125 0 0 Z " fill="#08A7B9" transform="translate(152,344)"/>
<path d="M0 0 C1.670625 0.37125 1.670625 0.37125 3.375 0.75 C4.77435013 3.54870027 4.62765405 5.65498792 4.375 8.75 C3.87917923 9.19022995 3.38335846 9.6304599 2.87251282 10.08403015 C0.69112967 12.51079973 1.0680076 14.25014063 1.16479492 17.46801758 C1.20288521 19.23179497 1.20288521 19.23179497 1.241745 21.03120422 C1.27927383 22.30610214 1.31680267 23.58100006 1.35546875 24.89453125 C1.3787846 26.90706087 1.40201095 28.91959569 1.42026997 30.93217754 C1.46594887 35.88862795 1.53255277 40.84245783 1.69360352 45.79663086 C2.47809143 71.05142607 2.47809143 71.05142607 -2.77124023 77.30102539 C-5.18911893 79.66174672 -7.7977356 81.71074618 -10.44848633 83.80102539 C-14.0902029 86.79878027 -14.82312663 89.40504006 -15.30859375 94.14453125 C-15.2994646 96.61853099 -15.21706751 99.09331654 -15.0625 101.5625 C-15.07474609 102.80708984 -15.08699219 104.05167969 -15.09960938 105.33398438 C-14.9061668 112.2212701 -14.02544737 116.10379833 -9.03515625 121.01171875 C-8.21281494 121.69580811 -7.39047363 122.37989746 -6.54321289 123.0847168 C-5.59369751 123.90903198 -5.59369751 123.90903198 -4.625 124.75 C-4.625 125.41 -4.625 126.07 -4.625 126.75 C-3.985625 126.976875 -3.34625 127.20375 -2.6875 127.4375 C-0.625 128.75 -0.625 128.75 0.125 131.375 C0.24875 132.550625 0.24875 132.550625 0.375 133.75 C-3.01536482 133.1675634 -4.64577666 132.0974109 -7.04296875 129.66015625 C-7.65720703 129.04076172 -8.27144531 128.42136719 -8.90429688 127.78320312 C-9.84885742 126.80770508 -9.84885742 126.80770508 -10.8125 125.8125 C-11.45380859 125.16603516 -12.09511719 124.51957031 -12.75585938 123.85351562 C-18.93375392 117.57124272 -19.17063479 112.781121 -19.46948242 104.12353516 C-19.53061837 102.72783842 -19.61872791 101.33301514 -19.73608398 99.94091797 C-20.1319927 95.14289509 -20.46706026 90.28740895 -18.625 85.75 C-16.54471379 83.40333706 -14.09487309 81.57962343 -11.6328125 79.6484375 C-6.44666174 75.35772392 -4.2296306 71.8634229 -3.42504883 65.09765625 C-3.00327024 57.791526 -3.18976238 50.51280041 -3.48883057 43.20812988 C-3.58767861 40.41303147 -3.62174046 37.61879087 -3.65323544 34.82224083 C-3.72142368 29.043671 -3.83761482 23.26429641 -4.06225586 17.48974609 C-4.09782089 16.47496185 -4.13338593 15.46017761 -4.17002869 14.41464233 C-4.68547239 11.39582978 -5.75249092 10.11031018 -7.625 7.75 C-7.5 4.625 -7.5 4.625 -6.625 1.75 C-3.625 -0.25 -3.625 -0.25 0 0 Z " fill="#0E9AAE" transform="translate(62.625,161.25)"/>
<path d="M0 0 C2 3 2 3 1.75 6.0625 C1 9 1 9 -1 11 C-1.39006366 13.52683056 -1.39006366 13.52683056 -1.44921875 16.51269531 C-1.49425537 17.66860168 -1.53929199 18.82450806 -1.58569336 20.01544189 C-1.7281099 25.34897535 -1.84329171 30.68180067 -1.91992188 36.01660156 C-1.96418327 38.81993088 -2.04717538 41.61780506 -2.16601562 44.41894531 C-3.6628277 60.91249846 -3.6628277 60.91249846 2.14135742 75.48681641 C3.99715172 77.27963717 5.91747881 78.88013155 7.94462585 80.47494507 C11.92274596 83.63409075 13.86691203 85.68563232 14.52029419 90.82861328 C14.64275391 93.51332257 14.61695194 96.17954616 14.44067383 98.86132812 C14.31086877 100.90062742 14.29711663 102.91789767 14.29882812 104.9609375 C14.06795386 112.40754879 13.31894542 117.22239027 7.8112793 122.43408203 C7.21355713 122.95083496 6.61583496 123.46758789 6 124 C4.73929687 125.36125 4.73929687 125.36125 3.453125 126.75 C2.72609375 127.4925 1.9990625 128.235 1.25 129 C0.14398438 130.1446875 0.14398438 130.1446875 -0.984375 131.3125 C-3 133 -3 133 -6 133 C-5.57714698 128.06671479 -3.58291648 126.27798742 0 123 C0.65621338 122.49976318 1.31242676 121.99952637 1.98852539 121.48413086 C6.68695566 117.54275753 8.5705462 114.51264994 9.2734375 108.3671875 C9.34996723 105.87073497 9.38270868 103.37261339 9.375 100.875 C9.45621094 99.64523437 9.53742188 98.41546875 9.62109375 97.1484375 C9.78122569 90.29293503 9.78122569 90.29293503 6.57394409 84.48605347 C4.73345606 82.96878878 2.8616543 81.49593593 0.98828125 80.01953125 C-4.22997057 75.65952985 -6.39923008 72.05691388 -7.1953125 65.23242188 C-7.6219328 57.79676886 -7.49187076 50.3766025 -7.25 42.9362793 C-7.10483514 38.00350925 -7.07145563 33.06846671 -7.02668762 28.13395691 C-6.99635775 25.51600548 -6.94378075 22.89819774 -6.866745 20.28120422 C-6.84135147 19.10535263 -6.81595795 17.92950104 -6.78979492 16.71801758 C-6.75867111 15.68324783 -6.7275473 14.64847809 -6.69548035 13.58235168 C-7.05285287 10.55180335 -7.7789776 9.95605879 -10 8 C-10.39310741 4.85514075 -10.47555213 2.86718329 -8.9375 0.0625 C-5.78433176 -1.66665678 -3.37491745 -0.8590699 0 0 Z " fill="#04ABBB" transform="translate(455,162)"/>
<path d="M0 0 C-1.41519093 3.21775947 -3.11081982 5.35063001 -5.60424805 7.81542969 C-6.34229172 8.5500946 -7.08033539 9.28475952 -7.84074402 10.04168701 C-8.63966568 10.82714905 -9.43858734 11.61261108 -10.26171875 12.421875 C-11.08573685 13.24069153 -11.90975494 14.05950806 -12.75874329 14.90313721 C-15.39696474 17.52354537 -18.04174824 20.13719688 -20.6875 22.75 C-23.31457069 25.34933098 -25.94013049 27.95014188 -28.56269836 30.55401611 C-30.19382724 32.17302512 -31.82762115 33.78935517 -33.46452332 35.40252686 C-37.64843193 39.55018635 -41.6604795 43.7763758 -45.49110413 48.253479 C-47.81219965 50.94010711 -50.26037335 53.46817628 -52.75 56 C-53.45189453 56.73283203 -53.45189453 56.73283203 -54.16796875 57.48046875 C-55.38740718 58.71372518 -56.68909919 59.86444261 -58 61 C-58.99 61 -59.98 61 -61 61 C-62.05754917 52.66655449 -62.05754917 52.66655449 -59.7578125 49.04248047 C-57.9264521 47.20320808 -56.01987751 45.56756437 -54 43.9375 C-52.52148954 42.65366118 -51.0476713 41.36440252 -49.578125 40.0703125 C-48.81822266 39.40805664 -48.05832031 38.74580078 -47.27539062 38.06347656 C-43.54825111 34.68345691 -40.15841928 31.00929852 -36.75 27.3125 C-35.41435222 25.88384367 -34.07842035 24.45545288 -32.7421875 23.02734375 C-30.93838087 21.09207635 -29.13963235 19.15364548 -27.36035156 17.19580078 C-20.46220905 9.6174673 -11.00537351 0 0 0 Z " fill="#0B9FB2" transform="translate(333,387)"/>
<path d="M0 0 C18.60773295 3.07314646 31.85616542 20.80584341 43.49853516 34.2824707 C45.41961207 36.47999527 47.43249392 38.5652085 49.5 40.625 C50.25152344 41.38167969 51.00304687 42.13835937 51.77734375 42.91796875 C53.78486205 44.79847359 55.83284076 46.33845146 58.0625 47.9375 C60.37868625 49.82140264 60.93320161 50.59738787 61.4296875 53.58984375 C61.43673059 56.10070529 61.31003854 58.50984918 61 61 C57.48157214 60.41884626 55.83744782 59.20392497 53.35546875 56.68359375 C52.67806641 56.00103516 52.00066406 55.31847656 51.30273438 54.61523438 C50.25569336 53.53725586 50.25569336 53.53725586 49.1875 52.4375 C48.50107422 51.74591797 47.81464844 51.05433594 47.10742188 50.34179688 C43.8769439 47.06241857 40.75981717 43.73106542 37.75488281 40.24389648 C33.98330331 35.91479304 29.97017184 31.87670798 25.87890625 27.8515625 C24.35208646 26.33736771 22.82539739 24.8230411 21.29882812 23.30859375 C18.915024 20.94976775 16.52963297 18.59258711 14.1418457 16.23779297 C11.82072429 13.94668707 9.50570793 11.64955394 7.19140625 9.3515625 C6.46965714 8.64327301 5.74790802 7.93498352 5.00428772 7.20523071 C4.34617599 6.55049774 3.68806427 5.89576477 3.01000977 5.22119141 C2.42711685 4.64575592 1.84422394 4.07032043 1.2436676 3.47744751 C0 2 0 2 0 0 Z " fill="#0E98AD" transform="translate(179,387)"/>
<path d="M0 0 C0.94101563 0.34933594 1.88203125 0.69867188 2.8515625 1.05859375 C4.10927474 1.51850345 5.36709293 1.97812347 6.625 2.4375 C8.46964844 3.11619141 8.46964844 3.11619141 10.3515625 3.80859375 C17.57355224 6.16695229 24.3462222 6.12276731 31.875 6.0625 C32.94492187 6.05798828 34.01484375 6.05347656 35.1171875 6.04882812 C37.74481589 6.03709764 40.37241531 6.01916391 43 6 C43 9.96 43 13.92 43 18 C28.14880712 21.71279822 12.39892971 18.97944249 -1 12 C-0.67 8.04 -0.34 4.08 0 0 Z " fill="#0AA4B6" transform="translate(225,349)"/>
<path d="M0 0 C1.38305714 4.4160772 1.49895619 7.59500294 0 12 C-4.70831065 17.02080914 -10.86412415 20.53860739 -16.57666016 24.29833984 C-19.40681166 26.28566162 -21.83852306 28.50641336 -24.32861328 30.89501953 C-29.05177318 35.41535349 -32.48782666 37.66546123 -39.3125 37.6875 C-41.21425443 37.51420403 -43.11495047 37.30543356 -45 37 C-44.663817 34.11011917 -44.08165805 33.07869717 -41.953125 31.02734375 C-41.06109375 30.33769531 -40.1690625 29.64804687 -39.25 28.9375 C-38.24582031 28.14730469 -37.24164063 27.35710937 -36.20703125 26.54296875 C-35.67674316 26.12708496 -35.14645508 25.71120117 -34.60009766 25.28271484 C-32.51475609 23.61100526 -30.50453657 21.85556331 -28.49047852 20.09912109 C-22.65203891 15.02708568 -16.57038709 10.35622965 -10.3125 5.8125 C-9.52157959 5.23532227 -8.73065918 4.65814453 -7.91577148 4.06347656 C-7.17657471 3.53334961 -6.43737793 3.00322266 -5.67578125 2.45703125 C-5.01489502 1.98241455 -4.35400879 1.50779785 -3.6730957 1.01879883 C-2 0 -2 0 0 0 Z " fill="#01B3C3" transform="translate(154,264)"/>
<path d="M0 0 C-0.33 3.96 -0.66 7.92 -1 12 C-2.12792969 12.07476562 -3.25585938 12.14953125 -4.41796875 12.2265625 C-16.52422036 13.18591112 -27.58866238 15.79541586 -39.14672852 19.48095703 C-41 20 -41 20 -43 20 C-43 16.04 -43 12.08 -43 8 C-29.09324991 3.38871852 -14.72695729 0 0 0 Z " fill="#0CA1B4" transform="translate(252,226)"/>
<path d="M0 0 C-0.33 3.63 -0.66 7.26 -1 11 C-2.69125 11.37125 -4.3825 11.7425 -6.125 12.125 C-13.55485864 13.82699405 -20.88588736 15.85417652 -28.21923828 17.93017578 C-33.1481443 19.30570485 -37.91286567 20.42542009 -43 21 C-43.1352403 19.39815374 -43.23210847 17.79303374 -43.3125 16.1875 C-43.37050781 15.29417969 -43.42851562 14.40085938 -43.48828125 13.48046875 C-43 11 -43 11 -41.14453125 9.3671875 C-36.66795653 7.42085067 -32.0894628 6.17798113 -27.375 4.9375 C-26.44042969 4.68162109 -25.50585938 4.42574219 -24.54296875 4.16210938 C-16.43251695 1.98627093 -8.42587042 0 0 0 Z " fill="#0CA0B3" transform="translate(250,204)"/>
<path d="M0 0 C1.32 0 2.64 0 4 0 C3.47410742 4.09913435 1.39752441 5.93260219 -1.50390625 8.74926758 C-1.97061737 9.20677902 -2.43732849 9.66429047 -2.91818237 10.13566589 C-3.93045075 11.12650665 -4.94604909 12.11395433 -5.96456909 13.09836769 C-7.57775311 14.65929021 -9.17999606 16.23069883 -10.77954102 17.80558777 C-15.32812998 22.28089977 -19.89307962 26.73923855 -24.47167969 31.18383789 C-27.27370385 33.90533404 -30.06079214 36.64141157 -32.83932495 39.38687706 C-33.8990105 40.42798311 -34.96434961 41.46336785 -36.03543091 42.49274635 C-37.5363615 43.93575654 -39.01763107 45.39657602 -40.49609375 46.86254883 C-41.34357178 47.68765457 -42.1910498 48.51276031 -43.06420898 49.36286926 C-45.43357021 52.59065329 -45.57358051 55.07241487 -46 59 C-48.25 61.0625 -48.25 61.0625 -51 62 C-54.85304802 61.10394232 -55.76769266 60.34846101 -58 57 C-57.84418522 53.88370432 -57.47257053 52.47257053 -55.25 50.25 C-53 49 -53 49 -50.59765625 48.6484375 C-47.4453102 47.86153608 -46.36529975 46.74994794 -44.1875 44.375 C-41.68733851 41.67759762 -39.11195468 39.20409643 -36.32324219 36.81225586 C-32.2104019 33.22923681 -28.32241067 29.46752124 -24.47265625 25.60546875 C-23.79827011 24.93203934 -23.12388397 24.25860992 -22.42906189 23.56477356 C-21.02040932 22.1567956 -19.61299501 20.74757776 -18.20678711 19.3371582 C-16.04720227 17.17216396 -13.88226118 15.01262744 -11.71679688 12.85351562 C-10.3434288 11.47948763 -8.97037049 10.10514994 -7.59765625 8.73046875 C-6.94982681 8.08466354 -6.30199738 7.43885834 -5.63453674 6.77348328 C-4.74241737 5.87663567 -4.74241737 5.87663567 -3.83227539 4.96166992 C-3.30791397 4.43651291 -2.78355255 3.9113559 -2.24330139 3.37028503 C-0.88748638 1.99982008 -0.88748638 1.99982008 0 0 Z " fill="#0AA1B3" transform="translate(448,324)"/>
<path d="M0 0 C4 0 4 0 5.66932678 1.49278259 C6.20778732 2.16926346 6.74624786 2.84574432 7.30102539 3.54272461 C10.73255091 7.69592614 14.3697713 11.51509885 18.18359375 15.31640625 C18.84279312 15.97656235 19.50199249 16.63671844 20.1811676 17.31687927 C21.56396835 18.70035506 22.94801076 20.08259083 24.33325195 21.46362305 C26.43230343 23.55731669 28.5259594 25.65629874 30.61914062 27.75585938 C31.97363786 29.10969571 33.32844531 30.46322175 34.68359375 31.81640625 C35.29843124 32.43326797 35.91326874 33.0501297 36.54673767 33.6856842 C45.43354757 43.49374893 45.43354757 43.49374893 56.5625 49.5 C59 50 59 50 60.875 51.1875 C62 53 62 53 62 56 C61 59 61 59 58.75 61 C56 62 56 62 53.3125 61.5 C50.41938592 59.62338546 49.9357881 58.27525836 49 55 C48.91275162 54.38512222 48.82550323 53.77024445 48.73561096 53.13673401 C47.67620992 50.05948482 45.7957506 48.46000913 43.48022461 46.18725586 C43.0119072 45.72331924 42.54358978 45.25938263 42.06108093 44.78138733 C41.04565291 43.77735625 40.0267744 42.77680546 39.00486565 41.77937126 C37.38883086 40.20165124 35.78237688 38.61472435 34.17811584 37.02503967 C30.77287177 33.65406393 27.35604026 30.29498421 23.9375 26.9375 C19.97288162 23.04361151 16.01312644 19.14503511 12.06579781 15.23361397 C10.48075901 13.66806333 8.88697385 12.11179556 7.29270935 10.5556488 C6.32482667 9.59866039 5.35736083 8.64125015 4.39038086 7.68334961 C3.54068222 6.84936142 2.69098358 6.01537323 1.8155365 5.15611267 C0 3 0 3 0 0 Z " fill="#0F97AC" transform="translate(60,324)"/>
<path d="M0 0 C0.66 0.33 1.32 0.66 2 1 C2.87655538 4.08960775 3.34896257 5.89124992 3 9 C1.3013563 11.84304039 -0.97540394 13.87407278 -3.4375 16.0625 C-4.08187012 16.66811768 -4.72624023 17.27373535 -5.39013672 17.89770508 C-7.23874815 19.62383496 -9.11325632 21.31576435 -11 23 C-11.84949219 23.77601563 -12.69898438 24.55203125 -13.57421875 25.3515625 C-15.35397778 26.94487058 -17.14227792 28.49885491 -19 30 C-19.62519531 30.50789063 -20.25039062 31.01578125 -20.89453125 31.5390625 C-23.20761615 33.14406018 -25.44508412 34.15711456 -28.0625 35.1875 C-28.91972656 35.53167969 -29.77695313 35.87585938 -30.66015625 36.23046875 C-33 37 -33 37 -36 37 C-34.51556158 33.53891463 -32.55369767 31.31486374 -29.875 28.6875 C-29.15054688 27.96949219 -28.42609375 27.25148437 -27.6796875 26.51171875 C-25.57461863 24.53860026 -23.44304149 22.64668788 -21.2578125 20.765625 C-16.62623375 16.73866121 -12.31369498 12.42478947 -8 8.0625 C-7.22527344 7.28326172 -6.45054687 6.50402344 -5.65234375 5.70117188 C-3.76589243 3.8030758 -1.88183755 1.90266851 0 0 Z " fill="#09A6B8" transform="translate(238,165)"/>
<path d="M0 0 C1.63698704 1.35835095 3.26560725 2.72763168 4.85913086 4.13671875 C6.3076648 5.39743389 7.80095259 6.60820371 9.33032227 7.76953125 C13.20260923 11.01759162 15.64150525 13.50295346 16.83959961 18.50610352 C17.08772992 21.87316178 17.17660054 25.1163027 17.06347656 28.48413086 C16.99989425 30.56596238 17.02227789 32.63447941 17.0546875 34.71679688 C17.03840538 40.82524413 16.87852791 45.86760846 12.734375 50.65234375 C11.51481908 51.79575528 10.27169201 52.91487052 9 54 C7.73929687 55.36125 7.73929687 55.36125 6.453125 56.75 C5.72609375 57.4925 4.9990625 58.235 4.25 59 C3.51265625 59.763125 2.7753125 60.52625 2.015625 61.3125 C0 63 0 63 -3 63 C-2.57714698 58.06671479 -0.58291648 56.27798742 3 53 C3.65766357 52.50121338 4.31532715 52.00242676 4.99291992 51.48852539 C9.73780297 47.52230107 11.56820042 44.50059045 12.203125 38.296875 C12.27718566 35.78229187 12.29076343 33.26534324 12.25 30.75 C12.24556885 29.45199463 12.2411377 28.15398926 12.23657227 26.81665039 C11.96298985 19.9840053 11.4788287 14.93482849 6.64160156 9.88183594 C4.99184092 8.48355743 3.30293155 7.22905354 1.52734375 5.99609375 C0.69332031 5.33738281 -0.14070313 4.67867187 -1 4 C-0.87109375 1.72265625 -0.87109375 1.72265625 0 0 Z " fill="#138FA5" transform="translate(452,232)"/>
<path d="M0 0 C0 3.96 0 7.92 0 12 C-4.18730624 13.04682656 -7.97856931 13.11155353 -12.25 13.0625 C-12.99507812 13.05798828 -13.74015625 13.05347656 -14.5078125 13.04882812 C-16.3385764 13.03709246 -18.16929873 13.0191585 -20 13 C-20.02687279 11.18757948 -20.04633715 9.37504767 -20.0625 7.5625 C-20.07410156 6.55316406 -20.08570313 5.54382813 -20.09765625 4.50390625 C-20 2 -20 2 -19 1 C-16.94276119 0.76160752 -14.87827763 0.58455536 -12.8125 0.4375 C-11.12060547 0.31181641 -11.12060547 0.31181641 -9.39453125 0.18359375 C-6.26699391 0.01444041 -3.13210834 0 0 0 Z " fill="#0F9AAF" transform="translate(268,355)"/>
<path d="M0 0 C3 0 3 0 4.4375 1.328125 C4.953125 1.96234375 5.46875 2.5965625 6 3.25 C8.64445289 6.41771697 11.35117076 9.48665647 14.16894531 12.49902344 C15.61397474 14.05066134 17.04018104 15.61753818 18.4609375 17.19140625 C19.90047328 18.78375429 21.35436634 20.36408525 22.8515625 21.90234375 C25.17222692 24.55360561 25.99114481 26.58797326 26.06640625 30.08984375 C25.8384815 33.09494391 25.49291013 36.02789831 25 39 C24.34 39 23.68 39 23 39 C21.73828125 37.234375 21.73828125 37.234375 20.3125 34.75 C19.78293701 33.83822998 19.25337402 32.92645996 18.70776367 31.98706055 C18.14420166 31.00133057 17.58063965 30.01560059 17 29 C15.8311636 26.98466895 14.6605733 24.97035416 13.48828125 22.95703125 C12.90385254 21.95236816 12.31942383 20.94770508 11.71728516 19.91259766 C8.87867855 15.09818526 5.90032466 10.37463945 2.89648438 5.66210938 C0 1.09662898 0 1.09662898 0 0 Z " fill="#03B0C0" transform="translate(308,72)"/>
<path d="M0 0 C1.32 0 2.64 0 4 0 C6.60802469 29.57633745 6.60802469 29.57633745 0.66015625 37.46484375 C-2.85462622 41.19657241 -6.72338859 44.18965536 -11 47 C-11.58081055 45.125 -11.58081055 45.125 -12 43 C-10.70703125 41 -10.70703125 41 -8.8125 39 C-8.20019531 38.34 -7.58789062 37.68 -6.95703125 37 C-5 35 -5 35 -2.91577148 33.32324219 C-0.27885421 30.12547173 -0.45798902 27.93733005 -0.390625 23.828125 C-0.37408875 23.1457074 -0.35755249 22.46328979 -0.34051514 21.76019287 C-0.29210161 19.59003646 -0.27068135 17.42058028 -0.25 15.25 C-0.22183438 13.77470448 -0.19190611 12.29944149 -0.16015625 10.82421875 C-0.08634775 7.21629802 -0.03673106 3.60851028 0 0 Z " fill="#08ACBD" transform="translate(204,108)"/>
<path d="M0 0 C3.80241571 1.52096628 7.36474615 3.14010268 11 5 C10.67 8.96 10.34 12.92 10 17 C6.46157845 15.8741386 3.33810482 14.66905241 0 13 C0 8.71 0 4.42 0 0 Z " fill="#07A8B9" transform="translate(230,328)"/>
<path d="M0 0 C0.47053883 4.09760899 0.71138533 7.92280645 0 12 C-2.31532756 14.53734527 -4.83589526 15.74833607 -8 17 C-8.66 17.33 -9.32 17.66 -10 18 C-10 13.38 -10 8.76 -10 4 C-3.375 0 -3.375 0 0 0 Z " fill="#07A9BA" transform="translate(240,255)"/>
</svg>
